<?xml version="1.0" encoding="UTF-8" standalone="no"?>
<!-- Created with Inkscape (http://www.inkscape.org/) -->

<svg
   xmlns:dc="http://purl.org/dc/elements/1.1/"
   xmlns:cc="http://creativecommons.org/ns#"
   xmlns:rdf="http://www.w3.org/1999/02/22-rdf-syntax-ns#"
   xmlns:svg="http://www.w3.org/2000/svg"
   xmlns="http://www.w3.org/2000/svg"
   xmlns:sodipodi="http://sodipodi.sourceforge.net/DTD/sodipodi-0.dtd"
   xmlns:inkscape="http://www.inkscape.org/namespaces/inkscape"
   width="210mm"
   height="297mm"
   id="svg2"
   version="1.1"
   inkscape:version="0.48.5 r10040"
   sodipodi:docname="Help Button.svg"
   inkscape:export-filename="C:\Users\Public\Documents\Unity Projects\Demineur\Assets\Images\UI\Pannel.png"
   inkscape:export-xdpi="44.43"
   inkscape:export-ydpi="44.43">
  <defs
     id="defs4">
    <marker
       inkscape:stockid="Arrow1Lstart"
       orient="auto"
       refY="0.0"
       refX="0.0"
       id="Arrow1Lstart"
       style="overflow:visible">
      <path
         id="path3761"
         d="M 0.0,0.0 L 5.0,-5.0 L -12.5,0.0 L 5.0,5.0 L 0.0,0.0 z "
         style="fill-rule:evenodd;stroke:#000000;stroke-width:1.0pt"
         transform="scale(0.8) translate(12.5,0)" />
    </marker>
  </defs>
  <sodipodi:namedview
     id="base"
     pagecolor="#ffffff"
     bordercolor="#666666"
     borderopacity="1.0"
     inkscape:pageopacity="0.0"
     inkscape:pageshadow="2"
     inkscape:zoom="0.98994949"
     inkscape:cx="186.14014"
     inkscape:cy="473.68494"
     inkscape:document-units="px"
     inkscape:current-layer="g4829"
     showgrid="false"
     inkscape:window-width="1366"
     inkscape:window-height="705"
     inkscape:window-x="-8"
     inkscape:window-y="-8"
     inkscape:window-maximized="1" />
  <metadata
     id="metadata7">
    <rdf:RDF>
      <cc:Work
         rdf:about="">
        <dc:format>image/svg+xml</dc:format>
        <dc:type
           rdf:resource="http://purl.org/dc/dcmitype/StillImage" />
        <dc:title />
      </cc:Work>
    </rdf:RDF>
  </metadata>
  <g
     inkscape:label="Calque 1"
     inkscape:groupmode="layer"
     id="layer1">
    <g
       transform="translate(360,-38.571451)"
       id="g4829">
      <path
         style="fill:#999999;fill-opacity:1;stroke:#808080;stroke-width:5;stroke-miterlimit:4;stroke-opacity:1;stroke-dasharray:none"
         d="m -35.711062,477.39633 c -69.887368,0 -126.531248,56.67512 -126.531248,126.5625 0,69.88737 56.64388,126.53125 126.531248,126.53125 69.88738,0 126.562489,-56.64388 126.562489,-126.53125 0,-69.88738 -56.675109,-126.5625 -126.562489,-126.5625 z m 0.25,35.5625 c 17.49666,1.8e-4 31.4582302,4.75994 41.8750002,14.28125 10.4165398,9.52164 15.6248698,21.02228 15.6249998,34.53125 -1.3e-4,7.81262 -1.83801,15.03332 -5.5,21.625 -3.66222,6.5919 -10.8080598,14.59125 -21.4687498,24.03125 -7.1615502,6.34774 -11.8653202,11.02026 -14.0625002,14.03125 -2.19735,3.01114 -3.81714,6.46881 -4.875,10.375 -1.05802,3.9063 -1.68106,10.27349 -1.84375,19.0625 l -21.09375,0 c -0.0814,-2.92964 -0.12506,-5.12886 -0.125,-6.59375 -6e-5,-8.62625 1.21478,-16.07741 3.65625,-22.34375 1.7903,-4.71997 4.66856,-9.47973 8.65625,-14.28125 2.92962,-3.49925 8.20337,-8.59854 15.8125,-15.3125 7.60895,-6.71376 12.5650102,-12.07475 14.8437502,-16.0625 2.27854,-3.9875 3.40614996,-8.34232 3.40624996,-13.0625 -1e-4,-8.54478 -3.32691996,-16.06138 -10.00000016,-22.53125 -6.67326,-6.46957 -14.84708,-9.68734 -24.53125,-9.6875 -9.35878,1.6e-4 -17.17128,2.92204 -23.4375,8.78125 -6.26632,5.85952 -10.39066,15.01772 -12.34375,27.46875 l -22.5625,-2.6875 c 2.03449,-16.68279 8.07453,-29.47315 18.125,-38.34375 10.05042,-8.87027 23.32351,-13.28107 39.84375,-13.28125 z m -12.6875,156.96875 25.03125,0 0,25.03125 -25.03125,0 0,-25.03125 z"
         id="path3015"
         inkscape:connector-curvature="0" />
      <flowRoot
         xml:space="preserve"
         id="flowRoot3791"
         style="fill:black;stroke:none;stroke-opacity:1;stroke-width:1px;stroke-linejoin:miter;stroke-linecap:butt;fill-opacity:1;font-family:Sans;font-style:normal;font-weight:normal;font-size:40px;line-height:125%;letter-spacing:0px;word-spacing:0px"><flowRegion
           id="flowRegion3793"><rect
             id="rect3795"
             width="51.51778"
             height="65.659912"
             x="60.609154"
             y="534.15393" /></flowRegion><flowPara
           id="flowPara3797"></flowPara></flowRoot>    </g>
  </g>
</svg>
