<?xml version="1.0" encoding="UTF-8" standalone="no"?>
<!-- Created with Inkscape (http://www.inkscape.org/) -->

<svg
   xmlns:dc="http://purl.org/dc/elements/1.1/"
   xmlns:cc="http://creativecommons.org/ns#"
   xmlns:rdf="http://www.w3.org/1999/02/22-rdf-syntax-ns#"
   xmlns:svg="http://www.w3.org/2000/svg"
   xmlns="http://www.w3.org/2000/svg"
   xmlns:sodipodi="http://sodipodi.sourceforge.net/DTD/sodipodi-0.dtd"
   xmlns:inkscape="http://www.inkscape.org/namespaces/inkscape"
   width="210mm"
   height="297mm"
   id="svg2"
   version="1.1"
   inkscape:version="0.48.5 r10040"
   sodipodi:docname="Restart Button.svg"
   inkscape:export-filename="C:\Users\Public\Documents\Unity Projects\Demineur\Assets\Images\UI\Pannel.png"
   inkscape:export-xdpi="44.43"
   inkscape:export-ydpi="44.43">
  <defs
     id="defs4">
    <marker
       inkscape:stockid="Arrow1Lstart"
       orient="auto"
       refY="0.0"
       refX="0.0"
       id="Arrow1Lstart"
       style="overflow:visible">
      <path
         id="path3761"
         d="M 0.0,0.0 L 5.0,-5.0 L -12.5,0.0 L 5.0,5.0 L 0.0,0.0 z "
         style="fill-rule:evenodd;stroke:#000000;stroke-width:1.0pt"
         transform="scale(0.8) translate(12.5,0)" />
    </marker>
  </defs>
  <sodipodi:namedview
     id="base"
     pagecolor="#ffffff"
     bordercolor="#666666"
     borderopacity="1.0"
     inkscape:pageopacity="0.0"
     inkscape:pageshadow="2"
     inkscape:zoom="1.4"
     inkscape:cx="265.54014"
     inkscape:cy="506.72064"
     inkscape:document-units="px"
     inkscape:current-layer="g4829"
     showgrid="false"
     inkscape:window-width="1366"
     inkscape:window-height="705"
     inkscape:window-x="-8"
     inkscape:window-y="-8"
     inkscape:window-maximized="1" />
  <metadata
     id="metadata7">
    <rdf:RDF>
      <cc:Work
         rdf:about="">
        <dc:format>image/svg+xml</dc:format>
        <dc:type
           rdf:resource="http://purl.org/dc/dcmitype/StillImage" />
        <dc:title></dc:title>
      </cc:Work>
    </rdf:RDF>
  </metadata>
  <g
     inkscape:label="Calque 1"
     inkscape:groupmode="layer"
     id="layer1">
    <g
       transform="translate(360,-38.571451)"
       id="g4829">
      <path
         style="fill:#999999;fill-opacity:1;stroke:#808080;stroke-width:5;stroke-miterlimit:4;stroke-opacity:1;stroke-dasharray:none"
         d="M 327.78125 439.625 C 257.89388 439.625 201.25 496.30012 201.25 566.1875 C 201.25 636.07487 257.89388 692.71875 327.78125 692.71875 C 397.66863 692.71875 454.34375 636.07487 454.34375 566.1875 C 454.34375 496.30012 397.66863 439.625 327.78125 439.625 z M 328.3125 479.71875 L 337.15625 479.71875 L 337.15625 497.375 L 328.3125 497.375 C 290.21673 497.375 259.53125 528.06048 259.53125 566.15625 C 259.53125 604.25202 290.21673 634.9375 328.3125 634.9375 C 366.40827 634.9375 397.125 604.25202 397.125 566.15625 C 397.125 557.88029 395.69967 549.97852 393.03125 542.65625 L 384.53125 549.40625 C 382.11703 551.32249 378.67955 551.8191 375.8125 550.6875 C 372.94546 549.55591 370.79841 546.82982 370.34375 543.78125 L 363.75 499.46875 C 363.40643 497.14814 364.0495 494.68039 365.46875 492.8125 C 366.888 490.94461 369.07845 489.69712 371.40625 489.40625 C 372.87342 489.21546 374.40355 489.39811 375.78125 489.9375 L 417.40625 506.46875 C 420.2619 507.61024 422.42744 510.30114 422.875 513.34375 C 423.32256 516.38636 422.03098 519.64703 419.625 521.5625 L 407.4375 531.25 C 412.16546 541.93871 414.8125 553.75124 414.8125 566.15625 C 414.8125 613.79871 375.95496 652.59375 328.3125 652.59375 C 280.67004 652.59375 241.875 613.79871 241.875 566.15625 C 241.875 518.51379 280.67004 479.71875 328.3125 479.71875 z "
         transform="translate(-360,38.571451)"
         id="path3015" />
      <flowRoot
         xml:space="preserve"
         id="flowRoot3791"
         style="fill:black;stroke:none;stroke-opacity:1;stroke-width:1px;stroke-linejoin:miter;stroke-linecap:butt;fill-opacity:1;font-family:Sans;font-style:normal;font-weight:normal;font-size:40px;line-height:125%;letter-spacing:0px;word-spacing:0px"><flowRegion
           id="flowRegion3793"><rect
             id="rect3795"
             width="51.51778"
             height="65.659912"
             x="60.609154"
             y="534.15393" /></flowRegion><flowPara
           id="flowPara3797"></flowPara></flowRoot>    </g>
  </g>
</svg>
